PathFileType	4	(X/Y/Z)	KinectSkeleton.trc																																																	
DataRate	CameraRate	NumFrames	NumMarkers	Units	OrigDataRate	OrigDataStartFrame	OrigNumFrames																																													
60	60	26	17	mm	60	99	300																																													
Frame#	Time	Neck			ShoulderMid			R.Shoulder			L.Shoulder			R.Elbow			L.Elbow			R.Wrist			L.Wrist			HipCenter			R.Hip			L.Hip			R.Knee			L.Knee			R.Ankle			L.Ankle			R.Foot			L.Foot		
		X1	Y1	Z1	X2	Y2	Z2	X3	Y3	Z3	X4	Y4	Z4	X5	Y5	Z5	X6	Y6	Z6	X7	Y7	Z7	X8	Y8	Z8	X9	Y9	Z9	X10	Y10	Z10	X11	Y11	Z11	X12	Y12	Z12	X13	Y13	Z13	X14	Y14	Z14	X15	Y15	Z15	X16	Y16	Z16	X17	Y17	Z17
																																																				
99	5.652	-1904.575	1090.955	285.686	-1904.575	1090.955	285.686	-1889.889	1011.449	448.417	-1883.576	1020.807	108.494	-1958.521	737.677	515.356	-1934.778	744.802	61.106	-1890.62	506.55	538.088	-1850.594	521.329	53.026	-1878.088	539.574	301.513	-1883.522	543.766	385.94	-1872.062	534.925	207.887	-1933.615	138.494	440.458	-1924.821	127.601	170.516	-2026.914	-247.055	476.335	-2005.223	-256.851	137.562	-1908.472	-369.624	526.115	-1848.537	-367.77	117.715
100	5.712	-1906.783	1093.526	286.173	-1906.783	1093.526	286.173	-1890.768	1012.671	448.556	-1882.844	1025.706	108.359	-1958.834	738.28	515.819	-1935.092	749.695	59.078	-1892.113	506.293	537.953	-1851.606	525.429	53.207	-1880.416	540.865	300.141	-1885.831	544.76	384.738	-1874.411	536.546	206.327	-1931.877	138.455	440.769	-1925.564	128.041	171.431	-2026.913	-247.473	476.042	-2002.647	-257.962	140.147	-1908.761	-370.567	526.365	-1846.97	-371.226	122.298
101	5.782	-1907.908	1092.351	286.143	-1907.908	1092.351	286.143	-1893.277	1009.339	447.692	-1886.036	1024.16	108.268	-1957.722	734.512	515.656	-1934.95	747.417	61.13	-1896.296	501.489	539.853	-1848.229	524.648	53.74	-1881.557	540.391	301.244	-1888.488	544.685	385.637	-1873.871	535.628	207.655	-1936.08	138.792	440.739	-1926.166	127.662	172.355	-2024.737	-248.305	475.924	-2006.353	-257.214	139.333	-1905.278	-369.869	526.339	-1848.406	-367.204	122.791
102	5.833	-1906.085	1092.291	286.582	-1906.085	1092.291	286.582	-1892.148	1009.685	448.273	-1884.994	1024.45	108.653	-1961.488	736.076	515.915	-1936.485	748.365	60.993	-1893.082	504.891	538.126	-1853.345	524.341	53.026	-1881.285	540.25	301.821	-1886.468	544.524	386.312	-1875.538	535.509	208.124	-1935.284	138.832	440.778	-1926.417	127.573	172.05	-2026.229	-247.602	475.875	-2005.547	-257.394	139.134	-1907.902	-370.769	524.835	-1849.148	-369.273	121.369
103	5.879	-1907.167	1092.388	285.429	-1907.167	1092.388	285.429	-1892.27	1010.729	447.66	-1886.654	1024.557	107.422	-1961.739	737.106	516.022	-1939.887	748.241	61.803	-1894.106	505.594	539.112	-1855.752	524.416	53.449	-1882.509	540.106	301.699	-1887.821	544.376	386.244	-1876.618	535.371	207.941	-1936.761	138.422	440.935	-1927.385	127.089	172.156	-2029.394	-247.946	475.667	-2006.077	-258.266	139.269	-1909.56	-369.023	526.606	-1848.441	-368.66	121.612
104	5.926	-1905.694	1092.664	286.723	-1905.694	1092.664	286.723	-1892.702	1009.886	448.263	-1885.189	1024.59	108.894	-1963.494	736.869	516	-1936.059	748.444	62.01	-1892.209	506.656	537.538	-1855.456	523.724	52.343	-1884.134	540.632	301.444	-1890.547	544.871	385.798	-1877.022	535.931	207.899	-1938.084	139.327	440.505	-1926.882	128.163	171.518	-2025.909	-247.503	476.282	-2005.104	-256.749	138.818	-1908.367	-370.801	526.376	-1848.978	-368.882	121.609
105	5.974	-1908.129	1094.013	284.323	-1908.129	1094.013	284.323	-1893.496	1014.141	447.418	-1887.229	1024.731	106.633	-1962.415	740.131	515.895	-1937.951	747.634	61.293	-1896.842	507.812	539.098	-1855.58	522.919	53.101	-1882.542	540.935	301.28	-1887.297	545.156	385.938	-1877.271	536.254	207.398	-1935.184	138.705	440.664	-1926.19	127.398	171.321	-2026.156	-248.318	476.581	-2003.125	-258.737	139.19	-1906.722	-370.467	526.449	-1845.846	-370.113	122.645
106	6.019	-1908.591	1093.068	283.927	-1908.591	1093.068	283.927	-1895.503	1013.228	447.098	-1886.375	1019.433	107.723	-1963.846	739.542	516.355	-1936.412	742.93	59.663	-1900.076	507.034	540.43	-1850.263	519.814	52.956	-1883.296	540.588	301.688	-1888.865	544.789	386.221	-1877.121	535.929	207.943	-1935.896	138.608	440.939	-1927.124	127.58	171.802	-2028.483	-247.746	476.008	-2005.12	-257.951	139.245	-1908.917	-369.788	525.257	-1847.771	-368.808	121.907
107	6.066	-1907.366	1093.259	285.093	-1907.366	1093.259	285.093	-1895.453	1013.314	448.208	-1884.561	1021.19	108.46	-1965.24	739.524	515.68	-1936.414	745.165	59.461	-1899.426	507.598	540.046	-1853.895	520.651	53.141	-1883.766	540.524	301.358	-1888.805	544.553	385.939	-1878.179	536.056	207.561	-1934.775	138.221	440.669	-1928.06	127.685	171.154	-2028.618	-247.791	476.491	-2005.974	-257.928	139.03	-1908.694	-369.811	524.964	-1847.368	-367.006	121.7
108	6.127	-1909.5	1092.982	284.517	-1909.5	1092.982	284.517	-1895.93	1012.498	447.245	-1885.736	1021.466	107.987	-1966.831	740.09	518.437	-1938.019	745.827	58.096	-1902.658	507.772	542.273	-1854.958	521.642	51.571	-1884.278	540.507	301.4	-1890.383	544.627	385.865	-1877.508	535.938	207.731	-1937.022	138.575	440.589	-1927.928	127.824	171.449	-2028.806	-247.787	475.807	-2006.124	-257.531	139.288	-1907.925	-368.52	524.804	-1847.906	-367.09	122.498
109	6.17	-1907.604	1090.68	282.723	-1907.604	1090.68	282.723	-1893.536	1015.017	446.773	-1884.88	1017.726	107.066	-1971.619	745.717	519.962	-1945.502	745.115	53.26	-1903.728	515.133	545.521	-1855.742	524.006	47.45	-1884.945	539.244	302.686	-1890.407	543.697	387.014	-1878.886	534.307	209.17	-1935.617	138.175	440.872	-1928.435	126.955	172.188	-2027.133	-247.502	475.586	-2005.89	-257.701	139.209	-1907.033	-368.198	525.348	-1848.36	-367.509	121.873
110	6.219	-1907.247	1093.057	284.622	-1907.247	1093.057	284.622	-1896.902	1015.107	448.595	-1883.81	1021.76	107.983	-1980.142	750.4	534.521	-1955.016	756.251	32.405	-1901.542	524.328	572.299	-1854.504	539.221	25.299	-1885.53	540.585	306.319	-1893.197	545.738	390.641	-1877.028	534.87	212.81	-1937.054	139.015	444.156	-1927.922	126.86	173.874	-2027.9	-248.145	474.914	-2007.012	-258.152	137.722	-1909.293	-370.186	526.471	-1848.732	-367.955	122.088
111	6.262	-1904.156	1091.464	284.331	-1904.156	1091.464	284.331	-1893.761	1016.874	449.329	-1889.404	1017.732	108.122	-1993.757	763.856	549.698	-1968.733	758.745	20.776	-1900.758	542.892	581.905	-1852.553	550.805	2.861	-1887.747	539.833	306.91	-1895.418	544.717	391.1	-1879.24	534.417	213.546	-1936.886	138.409	444.183	-1927.887	126.91	174.039	-2026.492	-248.108	477.617	-2005.9	-257.743	139.182	-1907.695	-370.958	525.635	-1849.194	-368.47	118.997
112	6.311	-1902.125	1088.794	283.464	-1902.125	1088.794	283.464	-1892.093	1019.086	449.389	-1892.708	1014.816	107.72	-2021.411	806.897	597.242	-1992.484	786.718	-28.472	-1904.535	603.279	652.514	-1839.844	604.285	-40.691	-1885.608	538.47	306.654	-1890.322	543.149	390.829	-1880.382	533.282	213.308	-1937.515	138.592	443.331	-1927.981	126.835	173.949	-2025.717	-246.973	477.873	-2004.667	-256.786	137.593	-1908.151	-370.366	525.645	-1848.212	-367.704	122.425
113	6.357	-1902.986	1090.87	279.246	-1902.986	1090.87	279.246	-1895.302	1025.02	446.989	-1891.529	1013.708	104.518	-2022.94	836.783	626.438	-2010.696	820.433	-66.606	-1907.183	631.581	680.194	-1852.7	644.134	-36.566	-1886.06	539.671	305.332	-1892.828	544.231	389.535	-1878.554	534.615	211.955	-1936.265	138.638	443.397	-1927.615	127.474	173.381	-2028.167	-246.819	478.193	-2004.911	-256.855	137.685	-1907.448	-368.34	524.114	-1848.381	-368.377	123.082
114	6.403	-1904.874	1090.211	278.376	-1904.874	1090.211	278.376	-1895.501	1025.376	446.561	-1892.78	1013.471	103.506	-2029.576	851.386	635.884	-2026.654	854.738	-91.121	-1922.924	642.595	695.413	-1864.206	688.306	-36.63	-1886.775	538.451	305.03	-1894.911	542.878	389.202	-1877.752	533.542	211.686	-1935.565	136.723	444.08	-1926.313	125.869	173.785	-2026.959	-249.28	478.623	-2003.303	-258.913	138.055	-1907.504	-371.933	525.502	-1847.365	-371.597	123.544
115	6.448	-1909.397	1093.603	274.689	-1909.397	1093.603	274.689	-1893.429	1028.974	443.484	-1898.531	1015.72	98.85	-2030.606	912.25	672.972	-2034.421	882.252	-114.915	-1917.014	698.31	696.312	-1865.598	735.709	-26.766	-1882.696	538.791	304.534	-1888.619	543.958	389.36	-1876.127	533.06	210.465	-1934.626	135.891	444.472	-1927.002	123.032	173.979	-2029.807	-251.621	479.577	-2006.561	-263.644	138.115	-1905.437	-371.206	525.65	-1844.345	-370.031	131.633
116	6.496	-1909.001	1093.927	274.969	-1909.001	1093.927	274.969	-1893.228	1029.34	443.825	-1897.637	1016.657	98.901	-2030.478	913.325	673.749	-2031.963	884.989	-117.084	-1916.723	699.431	697.542	-1863.523	736.941	-30.514	-1882.572	538.899	304.569	-1888.506	544.049	389.423	-1875.992	533.188	210.469	-1934.62	135.843	444.436	-1926.939	123.042	173.862	-2029.911	-251.789	479.416	-2006.579	-263.74	137.88	-1905.467	-371.361	525.55	-1844.601	-370.596	131.248
117	6.541	-1907.194	1092.811	278.448	-1907.194	1092.811	278.448	-1892.2	1029.979	447.073	-1889.531	1018.466	102.454	-2034.676	928.393	679.7	-2023.463	931.303	-134.362	-1901.459	726.12	696.953	-1881.361	749.323	-69.675	-1887.573	538.555	304.256	-1892.813	543.198	388.97	-1881.763	533.406	210.311	-1938.844	135.877	442.755	-1929.131	123.92	173.316	-2028.885	-251.951	477.948	-2005.509	-262.609	138.545	-1904.824	-370.639	525.632	-1845.597	-371.566	130.406
118	6.587	-1907.232	1092.852	279.861	-1907.232	1092.852	279.861	-1892.183	1032.56	448.804	-1891.656	1024	102.391	-2034.624	939.186	684.714	-2012.638	942.93	-143.246	-1906.355	733.542	697.605	-1872.612	750.105	-117.64	-1888.478	538.772	303.835	-1891.762	543.189	388.623	-1884.836	533.873	209.808	-1937.605	135.921	441.596	-1930.947	124.407	173.007	-2028.983	-251.258	478.494	-2005.769	-262.308	138.855	-1905.525	-370.847	525.197	-1845.621	-370.722	130.111
119	6.633	-1905.802	1089.818	279.454	-1905.802	1089.818	279.454	-1888.144	1031.492	448.029	-1891.312	1028.397	100.642	-2036.825	950.021	683.889	-2008.057	947.318	-146.473	-1913.077	741.769	688.914	-1873.435	751.475	-118.693	-1888.212	536.682	301.099	-1890.05	540.816	385.8	-1886.173	532.098	207.168	-1939.292	134.918	440.722	-1930.793	123.052	171.794	-2027.708	-252.078	479.351	-2005.137	-263.188	139.044	-1908.526	-376.203	524.13	-1845.688	-372.005	129.843
120	6.68	-1906.113	1090.582	279.206	-1906.113	1090.582	279.206	-1889.25	1030.965	447.608	-1891.438	1028.232	100.621	-2032.352	944.015	684.915	-2010.245	945.241	-144.832	-1910.932	734.548	693.524	-1872.746	751.469	-116.87	-1891.287	537.47	301.222	-1894.693	541.672	385.861	-1887.51	532.811	207.361	-1940.645	135.495	441.193	-1931.342	123.709	172.246	-2027.857	-251.782	479.242	-2004.708	-262.672	139.523	-1908.024	-374.891	524.991	-1845.989	-372.505	130.258
121	6.726	-1905.583	1090.792	280.251	-1905.583	1090.792	280.251	-1889.891	1030.346	448.503	-1890.594	1029.061	101.578	-2030.311	933.811	683.621	-2007.379	943.064	-143.741	-1904.902	726.703	690.538	-1866.581	753.66	-104.84	-1890.443	537.532	300.893	-1892.805	541.48	385.562	-1887.824	533.155	206.998	-1940.271	135.574	440.955	-1932.292	124.214	171.81	-2027.004	-251.549	480.75	-2005.064	-262.232	139.541	-1906.183	-374.439	524.29	-1845.999	-371.507	130.482
122	6.773	-1908.025	1092.942	278.985	-1908.025	1092.942	278.985	-1890.337	1032.39	447.672	-1891.201	1029.768	100.268	-2029.077	934.684	684.353	-2008.887	939.707	-144.133	-1904.202	726.366	689.246	-1865.708	751.266	-104.923	-1891.493	538.237	300.739	-1894.225	542.26	385.643	-1888.462	533.776	206.585	-1940.475	135.008	441.211	-1933.229	123.651	171.327	-2026.707	-253.475	480.579	-2006.519	-263.853	138.733	-1902.762	-374.21	523.496	-1844.921	-370.382	129.663
123	6.818	-1904.439	1092.43	279.914	-1904.439	1092.43	279.914	-1890.661	1031.925	448.602	-1893.078	1028.229	101.215	-2029.155	935.232	685.24	-2007.721	939.876	-144.688	-1904.897	727.008	689.429	-1868.292	749.275	-104.883	-1893.343	538.375	299.997	-1895.457	542.122	384.788	-1890.998	534.219	205.969	-1938.74	135.338	440.978	-1932.825	124.459	171.06	-2026.869	-251.995	480.624	-2004.839	-262.659	139.145	-1905.756	-374.812	524.46	-1845.421	-371.836	129.969
124	6.864	-1904.618	1092.342	279.013	-1904.618	1092.342	279.013	-1890.545	1031.579	447.845	-1891.503	1027.24	100.609	-2029.498	935.782	684.804	-2005.709	936.591	-144.87	-1903.458	728.449	688.905	-1866.114	746.684	-101.573	-1893.232	538.105	300.861	-1895.477	542.074	385.691	-1890.741	533.704	206.787	-1940.84	135.162	441.233	-1935.207	123.899	172.569	-2028.708	-252.502	480.769	-2007.754	-263.431	141.345	-1906.432	-374.427	524.325	-1848.292	-372.42	128.75
